<svg xmlns="http://www.w3.org/2000/svg" xmlns:xlink="http://www.w3.org/1999/xlink" preserveAspectRatio="xMidYMid meet" version="1.0" viewBox="1.0 1.0 510.0 510.0" zoomAndPan="magnify" style="fill: rgb(255, 172, 65);" original_string_length="3140"><g><g id="__id158_sff3lxihek"><path d="M51,221c0-5.523-4.478-10-10-10H11c-5.523,0-10,4.477-10,10s4.477,10,10,10h30C46.522,231,51,226.523,51,221z" style="fill: inherit;"/><path d="M36.858,153.929c-3.906-3.904-10.236-3.904-14.143,0c-3.905,3.905-3.905,10.237,0,14.143l21.213,21.213 c3.908,3.906,10.236,3.904,14.143,0c3.905-3.905,3.905-10.237,0-14.143L36.858,153.929z" style="fill: inherit;"/><path d="M43.929,252.716l-21.213,21.213c-3.905,3.905-3.905,10.237,0,14.143c3.908,3.906,10.236,3.904,14.143,0l21.213-21.213 c3.905-3.905,3.905-10.237,0-14.143C54.165,248.811,47.835,248.811,43.929,252.716z" style="fill: inherit;"/><path d="M501,211h-30c-5.522,0-10,4.477-10,10s4.478,10,10,10h30c5.522,0,10-4.477,10-10S506.522,211,501,211z" style="fill: inherit;"/><path d="M453.929,189.284c3.908,3.906,10.236,3.904,14.143,0l21.213-21.213c3.905-3.905,3.905-10.237,0-14.143 c-3.906-3.904-10.236-3.904-14.143,0l-21.213,21.213C450.023,179.047,450.023,185.379,453.929,189.284z" style="fill: inherit;"/><path d="M468.071,252.716c-3.906-3.904-10.236-3.904-14.143,0c-3.905,3.905-3.905,10.237,0,14.143l21.213,21.213 c3.908,3.906,10.236,3.904,14.143,0c3.905-3.905,3.905-10.237,0-14.143L468.071,252.716z" style="fill: inherit;"/><path d="M451,101C451,45.859,406.141,1,351,1c-48.481,0-89.009,34.681-98.092,80.536c-34.182-3.149-68.318,7.412-95.015,29.698 c-52.823,44.095-62.034,120.608-22.512,175.585c27.249,37.893,42.809,81.298,45.27,126.023C169.193,417.065,161,428.094,161,441 c0,16.542,13.458,30,30,30h1.006c4.646,22.795,24.847,40,48.994,40s44.348-17.205,48.994-40H291c16.542,0,30-13.458,30-30 c0-12.794-8.053-23.737-19.354-28.042c3.249-45.953,18.781-89.505,45.181-126.435c18.036-25.243,26.414-56.607,23.624-87.429 C416.313,190.017,451,149.486,451,101z M241,491c-13.037,0-24.159-8.359-28.286-20h56.572C265.159,482.641,254.037,491,241,491z M291,451c-7.427,0-85.536,0-100,0c-5.514,0-10-4.486-10-10s4.486-10,10-10c111.48,0,99.259,0.01,100.19,0.01 c5.425,0.103,9.81,4.54,9.81,9.99C301,446.514,296.514,451,291,451z M241,291c-11.028,0-20-8.972-20-20s8.972-20,20-20 s20,8.972,20,20S252.028,291,241,291z M330.556,274.895C302.106,314.69,285.324,361.563,281.731,411H251V309.734 c17.233-4.452,30-20.13,30-38.734c0-22.056-17.944-40-40-40s-40,17.944-40,40c0,18.604,12.767,34.282,30,38.734V411h-30.418 c-2.798-48.28-19.624-95.057-48.963-135.856c-33.368-46.418-25.727-111.145,19.09-148.557 c22.573-18.843,51.421-27.788,80.297-25.144c0.24,54.785,44.755,99.305,99.538,99.551 C352.886,227.052,345.799,253.56,330.556,274.895z M351,181c-44.112,0-80-35.888-80-80s35.888-80,80-80s80,35.888,80,80 S395.112,181,351,181z" style="fill: inherit;"/><path d="M381.429,67.679L336,113.107l-15.429-15.429c-3.906-3.904-10.236-3.904-14.143,0c-3.905,3.905-3.905,10.237,0,14.143 l22.5,22.5c3.908,3.906,10.236,3.904,14.143,0l52.5-52.5c3.905-3.905,3.905-10.237,0-14.143 C391.665,63.774,385.335,63.774,381.429,67.679z" style="fill: inherit;"/></g></g></svg>